<mxfile host="app.diagrams.net" modified="2023-10-13T15:14:24.904Z" agent="Mozilla/5.0 (Windows NT 10.0; Win64; x64; rv:109.0) Gecko/20100101 Firefox/118.0" etag="oD5tHK_-GOxv5uJbivdV" version="22.0.4" type="device">
  <diagram name="Страница — 1" id="ahnOX7mBA56WsBQ2i06z">
    <mxGraphModel dx="1222" dy="637" grid="1" gridSize="10" guides="1" tooltips="1" connect="1" arrows="1" fold="1" page="1" pageScale="1" pageWidth="827" pageHeight="1169" math="0" shadow="0">
      <root>
        <mxCell id="0" />
        <mxCell id="1" parent="0" />
        <mxCell id="ge6vXYUV_Du2qYyBfZ4V-3" style="edgeStyle=orthogonalEdgeStyle;rounded=0;orthogonalLoop=1;jettySize=auto;html=1;entryX=0.5;entryY=0;entryDx=0;entryDy=0;" edge="1" parent="1" source="ge6vXYUV_Du2qYyBfZ4V-1" target="ge6vXYUV_Du2qYyBfZ4V-2">
          <mxGeometry relative="1" as="geometry" />
        </mxCell>
        <mxCell id="ge6vXYUV_Du2qYyBfZ4V-1" value="&lt;div&gt;MAKE_TREE(data[], n)&lt;br&gt;Начало&lt;br&gt;&lt;/div&gt;" style="ellipse;whiteSpace=wrap;html=1;" vertex="1" parent="1">
          <mxGeometry x="160" y="80" width="210" height="60" as="geometry" />
        </mxCell>
        <mxCell id="ge6vXYUV_Du2qYyBfZ4V-6" style="edgeStyle=orthogonalEdgeStyle;rounded=0;orthogonalLoop=1;jettySize=auto;html=1;" edge="1" parent="1" source="ge6vXYUV_Du2qYyBfZ4V-2" target="ge6vXYUV_Du2qYyBfZ4V-5">
          <mxGeometry relative="1" as="geometry" />
        </mxCell>
        <mxCell id="ge6vXYUV_Du2qYyBfZ4V-2" value="root = new Node(data[0],0)" style="rounded=0;whiteSpace=wrap;html=1;" vertex="1" parent="1">
          <mxGeometry x="160" y="170" width="210" height="50" as="geometry" />
        </mxCell>
        <mxCell id="ge6vXYUV_Du2qYyBfZ4V-8" style="edgeStyle=orthogonalEdgeStyle;rounded=0;orthogonalLoop=1;jettySize=auto;html=1;" edge="1" parent="1" source="ge6vXYUV_Du2qYyBfZ4V-5" target="ge6vXYUV_Du2qYyBfZ4V-7">
          <mxGeometry relative="1" as="geometry" />
        </mxCell>
        <mxCell id="ge6vXYUV_Du2qYyBfZ4V-5" value="&lt;div&gt;Цикл А&lt;br&gt;&lt;/div&gt;&lt;div&gt;от 1 до n - 1&lt;/div&gt;" style="shape=loopLimit;whiteSpace=wrap;html=1;" vertex="1" parent="1">
          <mxGeometry x="160" y="250" width="210" height="50" as="geometry" />
        </mxCell>
        <mxCell id="ge6vXYUV_Du2qYyBfZ4V-10" style="edgeStyle=orthogonalEdgeStyle;rounded=0;orthogonalLoop=1;jettySize=auto;html=1;" edge="1" parent="1" source="ge6vXYUV_Du2qYyBfZ4V-7" target="ge6vXYUV_Du2qYyBfZ4V-9">
          <mxGeometry relative="1" as="geometry" />
        </mxCell>
        <mxCell id="ge6vXYUV_Du2qYyBfZ4V-7" value="INSERT(root, data[i],i)" style="shape=process;whiteSpace=wrap;html=1;backgroundOutline=1;" vertex="1" parent="1">
          <mxGeometry x="160" y="330" width="210" height="50" as="geometry" />
        </mxCell>
        <mxCell id="ge6vXYUV_Du2qYyBfZ4V-13" style="edgeStyle=orthogonalEdgeStyle;rounded=0;orthogonalLoop=1;jettySize=auto;html=1;" edge="1" parent="1" source="ge6vXYUV_Du2qYyBfZ4V-9" target="ge6vXYUV_Du2qYyBfZ4V-12">
          <mxGeometry relative="1" as="geometry" />
        </mxCell>
        <mxCell id="ge6vXYUV_Du2qYyBfZ4V-9" value="" style="shape=loopLimit;whiteSpace=wrap;html=1;rotation=-180;" vertex="1" parent="1">
          <mxGeometry x="160" y="400" width="210" height="50" as="geometry" />
        </mxCell>
        <mxCell id="ge6vXYUV_Du2qYyBfZ4V-11" value="Цикл А" style="text;html=1;strokeColor=none;fillColor=none;align=center;verticalAlign=middle;whiteSpace=wrap;rounded=0;" vertex="1" parent="1">
          <mxGeometry x="235" y="410" width="60" height="30" as="geometry" />
        </mxCell>
        <mxCell id="ge6vXYUV_Du2qYyBfZ4V-16" style="edgeStyle=orthogonalEdgeStyle;rounded=0;orthogonalLoop=1;jettySize=auto;html=1;" edge="1" parent="1" source="ge6vXYUV_Du2qYyBfZ4V-12" target="ge6vXYUV_Du2qYyBfZ4V-15">
          <mxGeometry relative="1" as="geometry" />
        </mxCell>
        <mxCell id="ge6vXYUV_Du2qYyBfZ4V-12" value="MAKE_TREE = root" style="rounded=0;whiteSpace=wrap;html=1;" vertex="1" parent="1">
          <mxGeometry x="160" y="470" width="210" height="50" as="geometry" />
        </mxCell>
        <mxCell id="ge6vXYUV_Du2qYyBfZ4V-15" value="&lt;div&gt;MAKE_TREE()&lt;br&gt;Конец&lt;br&gt;&lt;/div&gt;" style="ellipse;whiteSpace=wrap;html=1;" vertex="1" parent="1">
          <mxGeometry x="160" y="540" width="210" height="60" as="geometry" />
        </mxCell>
        <mxCell id="ge6vXYUV_Du2qYyBfZ4V-19" value="" style="edgeStyle=orthogonalEdgeStyle;rounded=0;orthogonalLoop=1;jettySize=auto;html=1;" edge="1" parent="1" source="ge6vXYUV_Du2qYyBfZ4V-17" target="ge6vXYUV_Du2qYyBfZ4V-18">
          <mxGeometry relative="1" as="geometry" />
        </mxCell>
        <mxCell id="ge6vXYUV_Du2qYyBfZ4V-17" value="&lt;div&gt;INSERT(subtree, data, index)&lt;/div&gt;&lt;div&gt;Начало&lt;/div&gt;" style="ellipse;whiteSpace=wrap;html=1;" vertex="1" parent="1">
          <mxGeometry x="601" y="80" width="210" height="70" as="geometry" />
        </mxCell>
        <mxCell id="ge6vXYUV_Du2qYyBfZ4V-20" style="edgeStyle=orthogonalEdgeStyle;rounded=0;orthogonalLoop=1;jettySize=auto;html=1;entryX=0.5;entryY=0;entryDx=0;entryDy=0;exitX=0.75;exitY=1;exitDx=0;exitDy=0;" edge="1" parent="1" source="ge6vXYUV_Du2qYyBfZ4V-22" target="ge6vXYUV_Du2qYyBfZ4V-21">
          <mxGeometry relative="1" as="geometry">
            <mxPoint x="496" y="290" as="targetPoint" />
            <mxPoint x="614.75" y="220" as="sourcePoint" />
            <Array as="points">
              <mxPoint x="496" y="230" />
            </Array>
          </mxGeometry>
        </mxCell>
        <mxCell id="ge6vXYUV_Du2qYyBfZ4V-24" value="" style="edgeStyle=orthogonalEdgeStyle;rounded=0;orthogonalLoop=1;jettySize=auto;html=1;" edge="1" parent="1" source="ge6vXYUV_Du2qYyBfZ4V-18" target="ge6vXYUV_Du2qYyBfZ4V-23">
          <mxGeometry relative="1" as="geometry" />
        </mxCell>
        <mxCell id="ge6vXYUV_Du2qYyBfZ4V-18" value="tree == nullptr" style="rhombus;whiteSpace=wrap;html=1;" vertex="1" parent="1">
          <mxGeometry x="614.75" y="190" width="182.5" height="80" as="geometry" />
        </mxCell>
        <mxCell id="ge6vXYUV_Du2qYyBfZ4V-48" style="edgeStyle=orthogonalEdgeStyle;rounded=0;orthogonalLoop=1;jettySize=auto;html=1;entryX=0.5;entryY=0;entryDx=0;entryDy=0;" edge="1" parent="1" source="ge6vXYUV_Du2qYyBfZ4V-21" target="ge6vXYUV_Du2qYyBfZ4V-46">
          <mxGeometry relative="1" as="geometry">
            <Array as="points">
              <mxPoint x="496" y="530" />
              <mxPoint x="706" y="530" />
            </Array>
          </mxGeometry>
        </mxCell>
        <mxCell id="ge6vXYUV_Du2qYyBfZ4V-21" value="INSERT = new Node(data, index)" style="rounded=0;whiteSpace=wrap;html=1;" vertex="1" parent="1">
          <mxGeometry x="391" y="300" width="210" height="50" as="geometry" />
        </mxCell>
        <mxCell id="ge6vXYUV_Du2qYyBfZ4V-22" value="&lt;div&gt;Да&lt;/div&gt;" style="text;html=1;strokeColor=none;fillColor=none;align=center;verticalAlign=middle;whiteSpace=wrap;rounded=0;" vertex="1" parent="1">
          <mxGeometry x="570" y="200" width="60" height="30" as="geometry" />
        </mxCell>
        <mxCell id="ge6vXYUV_Du2qYyBfZ4V-30" value="" style="edgeStyle=orthogonalEdgeStyle;rounded=0;orthogonalLoop=1;jettySize=auto;html=1;" edge="1" parent="1" source="ge6vXYUV_Du2qYyBfZ4V-23">
          <mxGeometry relative="1" as="geometry">
            <mxPoint x="751" y="380" as="targetPoint" />
            <Array as="points">
              <mxPoint x="750" y="330" />
              <mxPoint x="750" y="360" />
              <mxPoint x="751" y="360" />
            </Array>
          </mxGeometry>
        </mxCell>
        <mxCell id="ge6vXYUV_Du2qYyBfZ4V-36" style="edgeStyle=orthogonalEdgeStyle;rounded=0;orthogonalLoop=1;jettySize=auto;html=1;" edge="1" parent="1" source="ge6vXYUV_Du2qYyBfZ4V-23">
          <mxGeometry relative="1" as="geometry">
            <mxPoint x="1120.0000000000002" y="380" as="targetPoint" />
          </mxGeometry>
        </mxCell>
        <mxCell id="ge6vXYUV_Du2qYyBfZ4V-23" value="data &amp;lt; INFO(tree)" style="rhombus;whiteSpace=wrap;html=1;" vertex="1" parent="1">
          <mxGeometry x="811" y="290" width="247" height="80" as="geometry" />
        </mxCell>
        <mxCell id="ge6vXYUV_Du2qYyBfZ4V-25" value="&lt;div&gt;Нет&lt;/div&gt;" style="text;html=1;strokeColor=none;fillColor=none;align=center;verticalAlign=middle;whiteSpace=wrap;rounded=0;" vertex="1" parent="1">
          <mxGeometry x="770" y="200" width="60" height="30" as="geometry" />
        </mxCell>
        <mxCell id="ge6vXYUV_Du2qYyBfZ4V-45" style="edgeStyle=orthogonalEdgeStyle;rounded=0;orthogonalLoop=1;jettySize=auto;html=1;entryX=0.5;entryY=0;entryDx=0;entryDy=0;" edge="1" parent="1" source="ge6vXYUV_Du2qYyBfZ4V-31" target="ge6vXYUV_Du2qYyBfZ4V-43">
          <mxGeometry relative="1" as="geometry" />
        </mxCell>
        <mxCell id="ge6vXYUV_Du2qYyBfZ4V-31" value="tree-&amp;gt;left = INSERT(LEFT(tree),data, index)" style="shape=process;whiteSpace=wrap;html=1;backgroundOutline=1;" vertex="1" parent="1">
          <mxGeometry x="630" y="380" width="231" height="50" as="geometry" />
        </mxCell>
        <mxCell id="ge6vXYUV_Du2qYyBfZ4V-32" value="Да" style="text;html=1;strokeColor=none;fillColor=none;align=center;verticalAlign=middle;whiteSpace=wrap;rounded=0;" vertex="1" parent="1">
          <mxGeometry x="760" y="300" width="60" height="30" as="geometry" />
        </mxCell>
        <mxCell id="ge6vXYUV_Du2qYyBfZ4V-37" value="Нет" style="text;html=1;strokeColor=none;fillColor=none;align=center;verticalAlign=middle;whiteSpace=wrap;rounded=0;" vertex="1" parent="1">
          <mxGeometry x="1058" y="290" width="60" height="30" as="geometry" />
        </mxCell>
        <mxCell id="ge6vXYUV_Du2qYyBfZ4V-44" style="edgeStyle=orthogonalEdgeStyle;rounded=0;orthogonalLoop=1;jettySize=auto;html=1;entryX=0.5;entryY=0;entryDx=0;entryDy=0;" edge="1" parent="1" source="ge6vXYUV_Du2qYyBfZ4V-38" target="ge6vXYUV_Du2qYyBfZ4V-43">
          <mxGeometry relative="1" as="geometry" />
        </mxCell>
        <mxCell id="ge6vXYUV_Du2qYyBfZ4V-38" value="tree-&amp;gt;right= INSERT(RIGHT(tree),data, index)" style="shape=process;whiteSpace=wrap;html=1;backgroundOutline=1;" vertex="1" parent="1">
          <mxGeometry x="1000" y="380" width="231" height="50" as="geometry" />
        </mxCell>
        <mxCell id="ge6vXYUV_Du2qYyBfZ4V-47" style="edgeStyle=orthogonalEdgeStyle;rounded=0;orthogonalLoop=1;jettySize=auto;html=1;entryX=0.5;entryY=0;entryDx=0;entryDy=0;" edge="1" parent="1" source="ge6vXYUV_Du2qYyBfZ4V-43" target="ge6vXYUV_Du2qYyBfZ4V-46">
          <mxGeometry relative="1" as="geometry" />
        </mxCell>
        <mxCell id="ge6vXYUV_Du2qYyBfZ4V-43" value="INSERT = tree" style="rounded=0;whiteSpace=wrap;html=1;" vertex="1" parent="1">
          <mxGeometry x="830" y="510" width="210" height="50" as="geometry" />
        </mxCell>
        <mxCell id="ge6vXYUV_Du2qYyBfZ4V-46" value="&lt;div&gt;INSERT&lt;br&gt;Конец&lt;br&gt;&lt;/div&gt;" style="ellipse;whiteSpace=wrap;html=1;" vertex="1" parent="1">
          <mxGeometry x="601" y="630" width="210" height="60" as="geometry" />
        </mxCell>
        <mxCell id="ge6vXYUV_Du2qYyBfZ4V-51" value="" style="edgeStyle=orthogonalEdgeStyle;rounded=0;orthogonalLoop=1;jettySize=auto;html=1;" edge="1" parent="1" source="ge6vXYUV_Du2qYyBfZ4V-49">
          <mxGeometry relative="1" as="geometry">
            <mxPoint x="1475" y="149.9999999999999" as="targetPoint" />
          </mxGeometry>
        </mxCell>
        <mxCell id="ge6vXYUV_Du2qYyBfZ4V-49" value="Начало" style="ellipse;whiteSpace=wrap;html=1;" vertex="1" parent="1">
          <mxGeometry x="1370" y="50" width="210" height="50" as="geometry" />
        </mxCell>
        <mxCell id="ge6vXYUV_Du2qYyBfZ4V-55" style="edgeStyle=orthogonalEdgeStyle;rounded=0;orthogonalLoop=1;jettySize=auto;html=1;entryX=0.5;entryY=0;entryDx=0;entryDy=0;" edge="1" parent="1" source="ge6vXYUV_Du2qYyBfZ4V-52" target="ge6vXYUV_Du2qYyBfZ4V-53">
          <mxGeometry relative="1" as="geometry" />
        </mxCell>
        <mxCell id="ge6vXYUV_Du2qYyBfZ4V-52" value="n, data" style="shape=parallelogram;perimeter=parallelogramPerimeter;whiteSpace=wrap;html=1;fixedSize=1;" vertex="1" parent="1">
          <mxGeometry x="1350" y="150" width="250" height="50" as="geometry" />
        </mxCell>
        <mxCell id="ge6vXYUV_Du2qYyBfZ4V-57" style="edgeStyle=orthogonalEdgeStyle;rounded=0;orthogonalLoop=1;jettySize=auto;html=1;entryX=0.5;entryY=0;entryDx=0;entryDy=0;" edge="1" parent="1" source="ge6vXYUV_Du2qYyBfZ4V-53" target="ge6vXYUV_Du2qYyBfZ4V-56">
          <mxGeometry relative="1" as="geometry" />
        </mxCell>
        <mxCell id="ge6vXYUV_Du2qYyBfZ4V-53" value="&lt;div style=&quot;background-color: rgb(251, 251, 251); color: rgb(64, 63, 83); font-family: &amp;quot;JetBrains Mono&amp;quot;, monospace; font-size: 9pt;&quot;&gt;&lt;span style=&quot;color:#4876d6;&quot;&gt;found &lt;/span&gt;&lt;span style=&quot;color:#994cc3;&quot;&gt;= &lt;/span&gt;&lt;span style=&quot;color:#4876d6;&quot;&gt;FIND&lt;/span&gt;(&lt;span style=&quot;color:#994cc3;&quot;&gt;-&lt;/span&gt;&lt;span style=&quot;color:#aa0982;&quot;&gt;1&lt;/span&gt;&lt;span style=&quot;color:#5f7e97;&quot;&gt;, &lt;/span&gt;&lt;span style=&quot;color:#4876d6;&quot;&gt;data&lt;/span&gt;&lt;span style=&quot;color:#5f7e97;&quot;&gt;, &lt;/span&gt;&lt;span style=&quot;color:#4876d6;&quot;&gt;n&lt;/span&gt;)&lt;/div&gt;&lt;div style=&quot;background-color: rgb(251, 251, 251); color: rgb(64, 63, 83); font-family: &amp;quot;JetBrains Mono&amp;quot;, monospace; font-size: 9pt;&quot;&gt;&lt;span style=&quot;color:#4876d6;&quot;&gt;notFound &lt;/span&gt;&lt;span style=&quot;color:#994cc3;&quot;&gt;= &lt;/span&gt;&lt;span style=&quot;color:#4876d6;&quot;&gt;FIND&lt;/span&gt;(&lt;span style=&quot;color:#aa0982;&quot;&gt;99&lt;/span&gt;&lt;span style=&quot;color:#5f7e97;&quot;&gt;, &lt;/span&gt;&lt;span style=&quot;color:#4876d6;&quot;&gt;data&lt;/span&gt;&lt;span style=&quot;color:#5f7e97;&quot;&gt;, &lt;/span&gt;&lt;span style=&quot;color:#4876d6;&quot;&gt;n&lt;/span&gt;);&lt;/div&gt;" style="shape=process;whiteSpace=wrap;html=1;backgroundOutline=1;" vertex="1" parent="1">
          <mxGeometry x="1348.8700000000001" y="250" width="251.25" height="60" as="geometry" />
        </mxCell>
        <mxCell id="ge6vXYUV_Du2qYyBfZ4V-59" style="edgeStyle=orthogonalEdgeStyle;rounded=0;orthogonalLoop=1;jettySize=auto;html=1;" edge="1" parent="1" source="ge6vXYUV_Du2qYyBfZ4V-56" target="ge6vXYUV_Du2qYyBfZ4V-58">
          <mxGeometry relative="1" as="geometry" />
        </mxCell>
        <mxCell id="ge6vXYUV_Du2qYyBfZ4V-56" value="found, notFound" style="shape=parallelogram;perimeter=parallelogramPerimeter;whiteSpace=wrap;html=1;fixedSize=1;" vertex="1" parent="1">
          <mxGeometry x="1349.3799999999999" y="350" width="250" height="50" as="geometry" />
        </mxCell>
        <mxCell id="ge6vXYUV_Du2qYyBfZ4V-61" style="edgeStyle=orthogonalEdgeStyle;rounded=0;orthogonalLoop=1;jettySize=auto;html=1;entryX=0.5;entryY=0;entryDx=0;entryDy=0;" edge="1" parent="1" source="ge6vXYUV_Du2qYyBfZ4V-58" target="ge6vXYUV_Du2qYyBfZ4V-60">
          <mxGeometry relative="1" as="geometry" />
        </mxCell>
        <mxCell id="ge6vXYUV_Du2qYyBfZ4V-58" value="&lt;div style=&quot;background-color: rgb(251, 251, 251); color: rgb(64, 63, 83); font-family: &amp;quot;JetBrains Mono&amp;quot;, monospace; font-size: 9pt;&quot;&gt;t&lt;span style=&quot;color:#4876d6;&quot;&gt;ree &lt;/span&gt;&lt;span style=&quot;color:#994cc3;&quot;&gt;= &lt;/span&gt;&lt;span style=&quot;color:#4876d6;&quot;&gt;MAKE_TREE&lt;/span&gt;(&lt;span style=&quot;color:#4876d6;&quot;&gt;data&lt;/span&gt;&lt;span style=&quot;color:#5f7e97;&quot;&gt;, &lt;/span&gt;&lt;span style=&quot;color:#4876d6;&quot;&gt;n&lt;/span&gt;)&lt;br&gt;&lt;span style=&quot;color:#4876d6;&quot;&gt;LTR&lt;/span&gt;(&lt;span style=&quot;color:#4876d6;&quot;&gt;tree&lt;/span&gt;)&lt;/div&gt;" style="shape=process;whiteSpace=wrap;html=1;backgroundOutline=1;" vertex="1" parent="1">
          <mxGeometry x="1348.7500000000002" y="430" width="251.25" height="60" as="geometry" />
        </mxCell>
        <mxCell id="ge6vXYUV_Du2qYyBfZ4V-60" value="Конец" style="ellipse;whiteSpace=wrap;html=1;" vertex="1" parent="1">
          <mxGeometry x="1370" y="535" width="210" height="50" as="geometry" />
        </mxCell>
      </root>
    </mxGraphModel>
  </diagram>
</mxfile>
